<svg width="156" height="96" viewBox="0 0 156 96" fill="none" xmlns="http://www.w3.org/2000/svg">
<path d="M132.444 9H24.4443C21.1306 9 18.4443 11.6863 18.4443 15V25C18.4443 28.3137 21.1306 31 24.4443 31H132.444C135.758 31 138.444 28.3137 138.444 25V15C138.444 11.6863 135.758 9 132.444 9Z" fill="var(--theme--background)"/>
<path d="M132.444 10H24.4443C21.6829 10 19.4443 12.2386 19.4443 15V25C19.4443 27.7614 21.6829 30 24.4443 30H132.444C135.206 30 137.444 27.7614 137.444 25V15C137.444 12.2386 135.206 10 132.444 10Z" stroke="var(--theme--primary)" stroke-opacity="0.25" stroke-width="2"/>
<path d="M54 17H48C46.8954 17 46 17.8954 46 19V21C46 22.1046 46.8954 23 48 23H54C55.1046 23 56 22.1046 56 21V19C56 17.8954 55.1046 17 54 17Z" fill="var(--theme--primary)" fill-opacity="0.25"/>
<path d="M98 17H62C60.8954 17 60 17.8954 60 19V21C60 22.1046 60.8954 23 62 23H98C99.1046 23 100 22.1046 100 21V19C100 17.8954 99.1046 17 98 17Z" fill="var(--theme--primary)" fill-opacity="0.25"/>
<path opacity="0.5" d="M38 18H28V19.2691H38V18ZM28 21.7778H38V20.5087H28V21.7778Z" fill="var(--theme--primary)"/>
<path d="M132 65H24C20.6863 65 18 67.6863 18 71V81C18 84.3137 20.6863 87 24 87H132C135.314 87 138 84.3137 138 81V71C138 67.6863 135.314 65 132 65Z" fill="var(--theme--background)"/>
<path d="M132 66H24C21.2386 66 19 68.2386 19 71V81C19 83.7614 21.2386 86 24 86H132C134.761 86 137 83.7614 137 81V71C137 68.2386 134.761 66 132 66Z" stroke="var(--theme--primary)" stroke-opacity="0.25" stroke-width="2"/>
<path d="M104 73H48C46.8954 73 46 73.8954 46 75V77C46 78.1046 46.8954 79 48 79H104C105.105 79 106 78.1046 106 77V75C106 73.8954 105.105 73 104 73Z" fill="var(--theme--primary)" fill-opacity="0.25"/>
<path opacity="0.5" d="M38 74H28V75.2691H38V74ZM28 77.7778H38V76.5087H28V77.7778Z" fill="var(--theme--primary)"/>
<path d="M132 37H24C20.6863 37 18 39.6863 18 43V53C18 56.3137 20.6863 59 24 59H132C135.314 59 138 56.3137 138 53V43C138 39.6863 135.314 37 132 37Z" fill="var(--theme--background)"/>
<path d="M132 38H24C21.2386 38 19 40.2386 19 43V53C19 55.7614 21.2386 58 24 58H132C134.761 58 137 55.7614 137 53V43C137 40.2386 134.761 38 132 38Z" stroke="var(--theme--primary)" stroke-width="2"/>
<path d="M45.0667 43H45.9333C45.9702 43 46 44.4924 46 46.3333V49.6667C46 51.5076 45.9702 53 45.9333 53H45.0667C45.0298 53 45 51.5076 45 49.6667V46.3333C45 44.4924 45.0298 43 45.0667 43Z" fill="var(--theme--primary)" fill-opacity="0.5"/>
<path d="M123.758 51.2916L123 50.5333L126.033 47.4999L123 44.4666L123.758 43.7083L126.792 46.7416L129.825 43.7083L130.583 44.4666L127.55 47.4999L130.583 50.5333L129.825 51.2916L126.792 48.2583L123.758 51.2916Z" fill="var(--theme--primary)"/>
<path d="M123.758 23.5833L123 22.825L126.033 19.7917L123 16.7583L123.758 16L126.792 19.0333L129.825 16L130.583 16.7583L127.55 19.7917L130.583 22.825L129.825 23.5833L126.792 20.55L123.758 23.5833Z" fill="var(--theme--primary)" fill-opacity="0.5"/>
<path d="M123.758 79.5833L123 78.825L126.033 75.7917L123 72.7583L123.758 72L126.792 75.0333L129.825 72L130.583 72.7583L127.55 75.7917L130.583 78.825L129.825 79.5833L126.792 76.55L123.758 79.5833Z" fill="var(--theme--primary)" fill-opacity="0.5"/>
<path d="M38 46H28V47.2691H38V46ZM28 49.7778H38V48.5087H28V49.7778Z" fill="var(--theme--primary)"/>
</svg>
